<?xml version="1.0" encoding="UTF-8" standalone="no"?>
<!-- Created with Inkscape (http://www.inkscape.org/) -->
<svg id="svg8" xmlns:rdf="http://www.w3.org/1999/02/22-rdf-syntax-ns#" xmlns="http://www.w3.org/2000/svg" xmlns:osb="http://www.openswatchbook.org/uri/2009/osb" height="48" width="48" version="1.1" xmlns:cc="http://creativecommons.org/ns#" viewBox="0 0 12.7 12.7" xmlns:dc="http://purl.org/dc/elements/1.1/">
 <title id="title4753">UIO-icon</title>
 <metadata id="metadata5">
  <rdf:RDF>
   <cc:Work rdf:about="">
    <dc:format>image/svg+xml</dc:format>
    <dc:type rdf:resource="http://purl.org/dc/dcmitype/StillImage"/>
    <dc:title>UIO-icon</dc:title>
    <dc:creator>
     <cc:Agent>
      <dc:title>Joaquín Urbano</dc:title>
     </cc:Agent>
    </dc:creator>
    <dc:rights>
     <cc:Agent>
      <dc:title>GPL</dc:title>
     </cc:Agent>
    </dc:rights>
   </cc:Work>
  </rdf:RDF>
 </metadata>
 <g id="layer1" transform="translate(0,-284.3)">
  <path id="rect3092" d="m0 0v48h48v-48zm23.193 4h1.293v0.002l0.321-0.002v1.5352h1.5586v1.291h-1.5586v3.7969l8.7832 7.3242h-1.9355l-0.98438-0.82812 0.005859 10.906-6.6562-5.457-6.8496 5.6641-0.003906-10.977-0.82031 0.69141h-1.9375l8.7852-7.3262v-3.7938h-1.5625v-0.32031h0.003906v-0.6504h-0.003906v-0.32031h1.5625zm0.54883 10.135c-1.5627 0.13053-2.8006 1.3742-2.9238 2.9375h2.9238zm0.51367 0v2.9375h2.9375c-0.12417-1.568-1.3695-2.8133-2.9375-2.9375zm-3.4375 3.4512c0.13049 1.5572 1.3665 2.7924 2.9238 2.9219v-2.9219zm3.4375 0v2.9238c1.5625-0.12415 2.8051-1.3618 2.9355-2.9238zm-0.25781 5.9102 6.6777 5.5293v0.005859l11.303 9.377h-1.934l-3.592-3.019v8.611h-2.1348v-8.7109c0.003033-1.2117-0.95129-1.8209-1.9102-1.8223-0.95887-0.001365-1.9223 0.6051-1.9336 1.8223v8.711h-2.2832l0.007813-10.672c0-3.2941-2.0819-4.3223-4.1719-4.3242-2.09-0.001943-4.2266 1.0089-4.2266 4.3613l0.012 10.635h-2.2891v-8.7109c0.003033-1.2117-0.95129-1.8209-1.9102-1.8223-0.95887-0.001365-1.9223 0.6051-1.9336 1.8223v8.711h-2.6055v-8.2148l-3.1191 2.623h-1.9336l5.0527-4.1914 0.30859-0.25586 5.7871-4.8086z" fill-rule="evenodd" transform="matrix(.26458 0 0 .26458 0 284.3)" fill="#333"/>
 </g>
</svg>
