<?xml version="1.0" encoding="UTF-8" standalone="no"?>
<!-- Created with Inkscape (http://www.inkscape.org/) -->
<svg id="svg8" xmlns:rdf="http://www.w3.org/1999/02/22-rdf-syntax-ns#" xmlns="http://www.w3.org/2000/svg" xmlns:osb="http://www.openswatchbook.org/uri/2009/osb" height="48" width="48" version="1.1" xmlns:cc="http://creativecommons.org/ns#" viewBox="0 0 12.7 12.7" xmlns:dc="http://purl.org/dc/elements/1.1/">
 <title id="title4753">UIO-icon</title>
 <metadata id="metadata5">
  <rdf:RDF>
   <cc:Work rdf:about="">
    <dc:format>image/svg+xml</dc:format>
    <dc:type rdf:resource="http://purl.org/dc/dcmitype/StillImage"/>
    <dc:title>UIO-icon</dc:title>
    <dc:creator>
     <cc:Agent>
      <dc:title>Joaquín Urbano</dc:title>
     </cc:Agent>
    </dc:creator>
    <dc:rights>
     <cc:Agent>
      <dc:title>GPL</dc:title>
     </cc:Agent>
    </dc:rights>
   </cc:Work>
  </rdf:RDF>
 </metadata>
 <g id="layer1" transform="translate(0,-284.3)">
  <path id="rect5793" d="m23.193 4v1.5352h-1.5625v0.32031h0.003906v0.65039h-0.003906v0.32031h1.5625v3.7949l-8.7852 7.3262h1.9375l0.82031-0.69141 0.003906 10.977 6.8496-5.6641 6.6562 5.457-0.005859-10.906 0.98438 0.82812h1.9355l-8.7832-7.3242v-3.7978h1.5586v-1.291h-1.557v-1.5352l-0.32031 0.0019531v-0.002h-0.97266zm0.54883 10.135v2.9375h-2.9238c0.12324-1.5633 1.3611-2.807 2.9238-2.9375zm0.51367 0c1.568 0.12417 2.8133 1.3695 2.9375 2.9375h-2.9375zm-3.4375 3.4512h2.9238v2.9219c-1.5573-0.12945-2.7933-1.3647-2.9238-2.9219zm3.4375 0h2.9355c-0.1304 1.562-1.373 2.7997-2.9355 2.9238zm-0.25781 5.9102-6.8281 5.6562-5.7871 4.8086-0.30859 0.25586-5.0527 4.1914h1.9336l3.1191-2.623v8.215h2.6055v-8.7109c0.011302-1.2172 0.97472-1.8236 1.9336-1.8223 0.95887 0.001366 1.9132 0.61056 1.9102 1.8223v8.711h2.288l-0.011-10.635c0-3.3525 2.1365-4.3633 4.2266-4.3613 2.09 0.001944 4.1719 1.0301 4.1719 4.3242l-0.009 10.672h2.2832v-8.7109c0.011302-1.2172 0.97472-1.8236 1.9336-1.8223 0.95887 0.001366 1.9132 0.61056 1.9102 1.8223v8.711h2.135v-8.6113l3.5918 3.0195h1.9336l-11.303-9.377v-0.005859z" transform="matrix(.26458 0 0 .26458 0 284.3)" fill="#333"/>
 </g>
</svg>
