<?xml version="1.0" encoding="UTF-8" standalone="no"?>
<!-- Created with Inkscape (http://www.inkscape.org/) -->
<svg id="svg8" xmlns:rdf="http://www.w3.org/1999/02/22-rdf-syntax-ns#" xmlns="http://www.w3.org/2000/svg" xmlns:osb="http://www.openswatchbook.org/uri/2009/osb" height="48" width="48" version="1.1" xmlns:cc="http://creativecommons.org/ns#" viewBox="0 0 12.7 12.7" xmlns:dc="http://purl.org/dc/elements/1.1/">
 <title id="title4753">UIO-icon</title>
 <metadata id="metadata5">
  <rdf:RDF>
   <cc:Work rdf:about="">
    <dc:format>image/svg+xml</dc:format>
    <dc:type rdf:resource="http://purl.org/dc/dcmitype/StillImage"/>
    <dc:title>UIO-icon</dc:title>
    <dc:creator>
     <cc:Agent>
      <dc:title>Joaquín Urbano</dc:title>
     </cc:Agent>
    </dc:creator>
    <dc:rights>
     <cc:Agent>
      <dc:title>GPL</dc:title>
     </cc:Agent>
    </dc:rights>
   </cc:Work>
  </rdf:RDF>
 </metadata>
 <g id="layer1" transform="translate(0,-284.3)">
  <path id="rect5793" d="m23.193 4v1.5352h-1.5625v0.32031h0.003906v0.65039h-0.003906v0.32031h1.5625v3.7949l-8.7852 7.3262h1.9375l0.82031-0.69141 0.003906 10.977 6.8496-5.6641 6.6562 5.457-0.005859-10.906 0.98438 0.82812h1.9355l-8.7832-7.3242v-3.7978h1.5586v-1.291h-1.557v-1.5352l-0.32031 0.0019531v-0.002h-0.973zm1.096 0.5039v1.5352h1.5586l0.007813 0.27539h-1.559l0.001953 4.3086 0.18164 0.39062 7.748 6.457-0.354-0.001-1.723-1.391 0.008 10.86-5.564-4.557-0.549-0.479-0.584 0.459-5.787 4.793-0.002-10.412 0.012-0.588-1.504 1.284h-0.36719l7.705-6.426 0.187-0.387-0.004-4.3086-1.555 0.0059-0.007-0.2754h1.5625v-1.5352zm-0.54688 9.1172c-1.4858 0.33863-2.9275 0.64456-3.4316 3.4512v0.51367c0.35782 2.1831 1.6021 3.1951 3.4316 3.4355h0.508c1.7548-0.23859 3.1046-1.0847 3.4512-3.4355v-0.514c-0.347-2.364-1.728-3.166-3.451-3.451zm0 0.51367v2.9375h-2.9238c0.12324-1.5633 1.3611-2.807 2.9238-2.9375zm0.51367 0c1.568 0.12417 2.8133 1.3695 2.9375 2.9375h-2.9375zm-3.4375 3.4512h2.9238v2.9219c-1.5573-0.12945-2.7933-1.3647-2.9238-2.9219zm3.4375 0h2.9355c-0.1304 1.562-1.373 2.7997-2.9355 2.9238zm-0.25781 5.9102-6.8281 5.6562-5.7871 4.8086-0.30859 0.25586-5.0527 4.1914h1.9336l3.1191-2.623v8.215h2.6055v-8.7109c0.011302-1.2172 0.97472-1.8236 1.9336-1.8223 0.95887 0.001366 1.9132 0.61056 1.9102 1.8223v8.711h2.288l-0.011-10.635c0-3.3525 2.1365-4.3633 4.2266-4.3613 2.09 0.001944 4.1719 1.0301 4.1719 4.3242l-0.009 10.672h2.2832v-8.7109c0.011302-1.2172 0.97472-1.8236 1.9336-1.8223 0.95887 0.001366 1.9132 0.61056 1.9102 1.8223v8.711h2.135v-8.6113l3.5918 3.0195h1.9336l-11.303-9.377v-0.006zm0.002 0.664l16.559 13.734h-0.32812l-4.2969-3.6055 0.005859 9.1973h-1.1074l0.001953-8.3027c-0.149-1.563-1.394-2.157-2.245-2.23h-0.32031c-1.5834 0.16831-2.1327 1.0673-2.3066 2.2305l-0.001953 8.2969h-1.2617l0.009766-10.219c-0.10957-3.4524-1.9383-4.6-4.4941-4.7734h-0.32031c-3.0009 0.16787-4.5231 1.7722-4.6074 4.7734l0.011719 10.225h-1.2617l-0.001953-8.3027c-0.11436-1.5299-0.99753-2.1148-2.2578-2.2344h-0.32031c-0.99771 0.060935-2.2471 0.72687-2.2949 2.2344l0.003906 8.3027h-1.5781l0.005-8.799-3.8245 3.207h-0.32812z" transform="matrix(.26458 0 0 .26458 0 284.3)" fill="#333"/>
 </g>
</svg>
